<svg width="671" height="1338" viewBox="0 0 671 1338" fill="none" xmlns="http://www.w3.org/2000/svg">
<path d="M670.957 635.458C670.957 759.248 671.03 882.223 670.918 1005.2C670.876 1051.67 661.181 1096.18 642.175 1138.56C612.622 1204.47 566.578 1255.82 504.424 1292.38C467.126 1314.32 426.91 1328.29 383.926 1334.55C358.25 1338.28 332.485 1338.92 306.883 1336.79C241.806 1331.36 183.061 1308.43 131.218 1268.59C93.3199 1239.47 62.8494 1203.87 40.0755 1161.67C19.9979 1124.46 7.52837 1084.88 2.28644 1043.04C0.74083 1030.7 0.148858 1018.17 0.142004 1005.72C0.0186328 781.492 -0.102478 557.259 0.139397 333.027C0.219633 258.653 23.4307 191.619 68.2872 132.522C112.976 73.645 171.291 33.843 242.191 12.9327C273.034 3.83608 304.609 -0.103426 336.879 0.00206075C373.589 0.122063 409.118 6.01988 443.792 17.775C481.681 30.6196 516.233 49.6144 547.117 74.992C604.917 122.486 643.151 182.599 661.389 255.243C668.014 281.631 671.03 308.502 671 335.757C670.89 435.386 670.956 535.015 670.957 635.458ZM28.7727 308.051C28.3965 316.178 27.6984 324.304 27.6928 332.431C27.6185 441.496 27.6369 550.561 27.6553 659.625C27.6554 660.203 27.6555 660.781 27.6556 661.359C27.656 663.716 27.9237 666.074 28.0597 668.315C39.6902 669.998 637.366 669.457 643.124 667.775C643.203 666.237 643.36 664.625 643.36 663.013C643.349 552.014 643.333 441.014 643.295 330.015C643.287 309.307 640.687 288.856 636.118 268.713C599.168 105.824 441.061 2.06944 277.221 33.0771C143.94 58.3012 41.7554 170.877 28.7727 308.051ZM551.103 922.964C551.103 959.61 551.192 996.255 551.067 1032.9C551 1052.72 550.281 1072.51 547.019 1092.12C544.382 1107.98 540.388 1123.41 533.044 1137.82C522.194 1159.12 504.819 1173.15 483.387 1182.73C481.685 1183.49 480.139 1184.6 478.521 1185.55C478.789 1186.06 479.057 1186.57 479.324 1187.08C480.949 1186.45 482.596 1185.88 484.196 1185.19C497.941 1179.28 510.96 1172.04 522.963 1163.11C566.083 1131.04 590.665 1088.7 591.012 1034.36C591.602 942.072 591.181 849.777 591.156 757.485C591.155 755.413 590.799 753.34 590.599 751.155C577.358 750.707 564.703 750.279 551.104 749.819C551.104 807.464 551.104 864.4 551.103 922.964Z" fill="#253771"/>
<path d="M28.7727 308.051C28.3965 316.178 27.6984 324.304 27.6928 332.431C27.6185 441.496 27.6369 550.561 27.6553 659.625L27.6556 661.359C27.656 663.716 27.9237 666.074 28.0597 668.315C39.6902 669.998 637.366 669.457 643.124 667.775C643.203 666.237 643.36 664.625 643.36 663.013C643.349 552.014 643.333 441.014 643.295 330.015C643.287 309.307 640.687 288.856 636.118 268.713C599.168 105.824 441.061 2.06944 277.221 33.0771C143.94 58.3012 41.7554 170.877 28.7727 308.051Z" fill="#FAFAFC"/>
</svg>
