<svg width="3064" height="1338" viewBox="0 0 3064 1338" fill="none" xmlns="http://www.w3.org/2000/svg">
<path d="M671.562 635.458C671.562 759.248 671.635 882.223 671.523 1005.2C671.481 1051.67 661.777 1096.18 642.754 1138.56C613.174 1204.47 567.089 1255.82 504.878 1292.38C467.547 1314.32 427.295 1328.29 384.272 1334.55C358.573 1338.28 332.785 1338.92 307.16 1336.79C242.024 1331.36 183.226 1308.43 131.337 1268.59C93.4041 1239.47 62.9061 1203.87 40.1117 1161.67C20.0159 1124.46 7.53516 1084.88 2.28851 1043.04C0.741498 1030.7 0.148992 1018.17 0.142132 1005.72C0.0186496 781.492 -0.10257 557.259 0.139523 333.027C0.219831 258.653 23.4518 191.619 68.3488 132.522C113.078 73.645 171.445 33.843 242.409 12.9327C273.28 3.83608 304.884 -0.103426 337.183 0.00206075C373.926 0.122063 409.487 6.01988 444.193 17.775C482.116 30.6196 516.699 49.6144 547.611 74.992C605.462 122.486 643.731 182.599 661.986 255.243C668.616 281.631 671.635 308.502 671.605 335.757C671.495 435.386 671.562 535.015 671.562 635.458ZM28.7986 308.051C28.4221 316.178 27.7233 324.304 27.7178 332.431C27.6431 442.074 27.662 551.717 27.6805 661.359C27.6809 663.716 27.9489 666.074 28.085 668.315C39.7259 669.998 637.941 669.457 643.703 667.775C643.783 666.237 643.941 664.625 643.94 663.013C643.929 552.014 643.913 441.014 643.875 330.015C643.868 309.307 641.265 288.856 636.692 268.713C599.709 105.824 441.459 2.06944 277.471 33.0771C144.069 58.3012 41.7931 170.877 28.7986 308.051ZM551.6 922.964C551.6 959.61 551.689 996.255 551.564 1032.9C551.497 1052.72 550.778 1072.51 547.512 1092.12C544.873 1107.98 540.875 1123.41 533.525 1137.82C522.665 1159.12 505.274 1173.15 483.823 1182.73C482.119 1183.49 480.572 1184.6 478.953 1185.55C479.221 1186.06 479.489 1186.57 479.757 1187.08C481.383 1186.45 483.032 1185.88 484.633 1185.19C498.39 1179.28 511.421 1172.04 523.435 1163.11C566.594 1131.04 591.198 1088.7 591.545 1034.36C592.135 942.072 591.714 849.777 591.689 757.485C591.688 755.413 591.332 753.34 591.131 751.155C577.879 750.707 565.212 750.279 551.601 749.819C551.601 807.464 551.601 864.4 551.6 922.964Z" fill="#253771"/>
<path d="M918.791 663.151C918.791 726.852 918.791 789.739 918.791 853.184C901.243 853.184 884.813 853.184 867.855 853.184C867.465 851.431 866.875 849.682 866.727 847.897C866.526 845.47 866.657 843.015 866.657 840.572C866.656 623.962 866.656 407.351 866.656 190.741C866.656 187.004 866.656 183.266 866.656 178.968C869.927 178.658 872.291 178.249 874.656 178.24C890.942 178.184 907.23 178.317 923.514 178.143C928.182 178.094 931.707 179.333 934.913 182.954C947.49 197.162 960.382 211.089 973.066 225.202C986.11 239.716 999.047 254.326 1012.03 268.893C1032.59 291.955 1053.11 315.053 1073.72 338.067C1090.54 356.846 1107.52 375.479 1124.34 394.257C1144.96 417.27 1165.43 440.411 1186.05 463.412C1203.43 482.784 1221.01 501.972 1238.37 521.355C1258.44 543.763 1278.34 566.326 1298.38 588.761C1310.48 602.305 1322.74 615.704 1334.87 629.224C1345.91 641.53 1356.85 653.924 1367.86 666.252C1369.95 668.586 1371.73 671.619 1376.72 670.559C1376.72 506.996 1376.72 343.471 1376.72 180.324C1383.39 177.842 1416.22 177.322 1425.94 179.186C1427.74 184.961 1428.22 859.206 1426.27 869.076C1418.73 870.032 1410.87 870.103 1403.17 869.111C1400.44 868.76 1397.72 865.784 1395.63 863.44C1382.64 848.876 1369.8 834.18 1356.97 819.474C1339.68 799.662 1322.48 779.784 1305.2 759.965C1271.9 721.757 1238.56 683.582 1205.26 645.373C1165.73 600.016 1126.26 554.597 1086.69 509.281C1061.55 480.495 1036.18 451.906 1011.04 423.122C983.583 391.687 956.281 360.116 928.864 328.646C926.49 325.921 923.76 323.506 921.476 321.226C920.167 321.905 919.888 321.989 919.696 322.167C919.512 322.336 919.301 322.602 919.3 322.826C919.119 435.996 918.955 549.166 918.791 663.151Z" fill="#253770"/>
<path d="M2603.37 758.93C2599.24 730.549 2601.55 703.625 2612.87 677.784C2619.13 663.5 2627.71 650.705 2638.01 639.052C2658.62 615.741 2684 598.844 2711.34 584.563C2757.06 560.681 2805.73 544.809 2855.3 531.377C2872.05 526.839 2888.87 522.562 2905.64 518.124C2907.71 517.577 2909.71 516.768 2912.2 515.924C2912.34 513.098 2912.63 510.426 2912.56 507.764C2912.06 489.074 2911.94 470.36 2910.82 451.707C2909.87 436.005 2907.12 420.497 2901.65 405.615C2892.18 379.829 2874.83 363.309 2846.91 359.483C2823.34 356.253 2800.35 357.259 2778.99 369.423C2759.89 380.294 2745.08 395.311 2734.61 414.64C2727.04 428.592 2721.9 443.359 2719.06 458.967C2717.88 465.404 2717.75 465.57 2711.21 465.59C2684.34 465.67 2657.47 465.677 2630.6 465.591C2623.15 465.567 2622.67 464.75 2623.88 457.493C2629.81 421.912 2648.96 394.405 2676.49 372.256C2705.69 348.765 2739.55 335.196 2775.99 328.278C2823.16 319.325 2870.39 319.752 2917.22 330.941C2936.04 335.437 2953.84 342.698 2969.94 353.809C2992.57 369.423 3005.62 391.234 3011.84 417.537C3015.16 431.553 3016.8 445.823 3016.81 460.215C3016.88 567.147 3016.95 674.081 3016.77 781.013C3016.73 804.754 3026.77 823.296 3044.19 838.39C3050.05 843.46 3056.47 847.869 3063.55 853.283C3060.71 853.477 3058.7 853.732 3056.68 853.734C3027.1 853.76 2997.51 853.683 2967.93 853.822C2963.13 853.845 2958.9 852.856 2954.87 850.263C2936.63 838.535 2921.5 824.178 2915.11 802.663C2913.38 796.82 2912.75 790.648 2911.4 783.437C2905.26 788.11 2899.74 792.296 2894.24 796.502C2879.18 808.027 2864.61 820.288 2848.94 830.922C2823.69 848.057 2795.65 858.897 2765.29 862.855C2739.84 866.174 2714.45 866.022 2689.57 858.354C2669.78 852.253 2652.03 842.391 2637.47 827.714C2620.66 810.769 2610.14 790.12 2604.96 766.794C2604.43 764.415 2603.96 762.022 2603.37 758.93ZM2893.6 556.75C2855.46 569.635 2818.8 585.79 2784.35 606.711C2762.71 619.852 2742.27 634.522 2726.42 654.688C2716.07 667.862 2707.24 681.924 2706.01 699.104C2703.52 734.148 2716.53 762.822 2743.8 784.623C2758.9 796.695 2776.69 802.43 2796.17 800.954C2817.3 799.353 2836.89 792.473 2855.44 782.322C2873.82 772.265 2890.64 759.93 2907.5 747.622C2911.19 744.935 2912.67 741.984 2912.66 737.448C2912.55 677.497 2912.59 617.546 2912.55 557.594C2912.55 555.581 2912.03 553.568 2911.65 550.843C2905.53 552.814 2900.16 554.541 2893.6 556.75Z" fill="#253770"/>
<path d="M1667.82 806.939C1636.91 781.503 1613.32 751.152 1596.93 715.213C1584.3 687.508 1576.74 658.491 1575.42 628.099C1573.1 574.563 1580.65 522.597 1602.33 473.205C1631.76 406.186 1680.07 358.982 1749.6 334.712C1772.76 326.628 1796.84 322.919 1821.5 322.591C1847.13 322.25 1872.46 323.598 1897.24 330.774C1930.51 340.413 1960.72 355.844 1987.09 378.456C2026.01 411.824 2050.2 453.8 2059.97 504.059C2062.3 516.029 2063.64 528.147 2062.16 540.899C2060.35 541.324 2058.62 541.959 2056.85 542.095C2054.15 542.303 2051.43 542.174 2048.71 542.174C1928.45 542.175 1808.19 542.175 1687.93 542.175C1684.17 542.175 1680.41 542.175 1675.65 542.175C1675.41 546.288 1674.82 549.707 1675.08 553.057C1676.76 574.106 1678.27 595.164 1682.91 615.872C1691.5 654.234 1705.92 689.95 1730.61 720.892C1752.99 748.931 1780.73 769.612 1815.71 779.271C1847.08 787.93 1878.54 786.478 1909.65 777.898C1948.71 767.126 1982.5 747.164 2010.34 717.624C2024.96 702.102 2036.82 684.65 2044.08 664.366C2044.79 662.38 2045.78 660.492 2047.09 657.547C2057.05 661.932 2066.61 666.14 2077.22 670.81C2075.12 677.244 2073.35 683.391 2071.12 689.366C2054.51 733.914 2026.65 770.405 1990.79 801.133C1963.89 824.178 1933.58 841.338 1900.21 852.987C1884.05 858.628 1867.37 862.202 1850.21 863.601C1782 869.163 1721.79 849.097 1667.82 806.939ZM1932.34 488.085C1928.97 447.925 1912.23 414.724 1880.43 389.644C1858.95 372.7 1834.28 363.513 1806.99 361.878C1774.8 359.949 1747.35 371.351 1724.17 393.165C1699.43 416.442 1685.17 445.572 1678.45 478.563C1677.13 485.078 1676.81 491.798 1676.05 498.243C1684.35 500.447 1925 500.318 1932.35 498.16C1932.35 495.48 1932.35 492.542 1932.34 488.085Z" fill="#253770"/>
<path d="M2403.06 860.388C2380.42 864.893 2358.39 866.718 2336.21 862.203C2300.29 854.892 2278.03 832.507 2266.7 798.507C2261.35 782.462 2259.28 765.865 2259.3 748.865C2259.46 629.432 2259.39 509.999 2259.39 390.566C2259.39 386.818 2259.39 383.07 2259.39 378.463C2255.5 378.152 2252.38 377.695 2249.27 377.687C2225.92 377.626 2202.58 377.675 2179.24 377.627C2176.04 377.62 2172.85 377.263 2169.91 377.083C2167.79 370.563 2167.62 365.619 2169.16 356.865C2172.22 355.928 2175.53 354.822 2178.89 353.894C2202.94 347.263 2227.01 340.698 2251.06 334.044C2259.34 331.751 2259.37 331.663 2259.38 322.956C2259.4 279.525 2259.38 236.095 2259.39 192.665C2259.39 182.659 2258.96 183.968 2267.8 180.462C2287.97 172.457 2308.18 164.555 2328.43 156.759C2331.15 155.712 2334.18 155.098 2337.09 155.01C2344.94 154.773 2352.8 154.929 2361.69 154.929C2361.94 158.765 2362.36 162.141 2362.37 165.516C2362.41 216.818 2362.39 268.12 2362.39 319.422C2362.39 322.888 2362.39 326.355 2362.39 330.581C2366.48 330.863 2369.61 331.263 2372.75 331.268C2404.24 331.315 2435.72 331.284 2467.21 331.316C2470.41 331.319 2473.6 331.589 2477.88 331.784C2478.15 346.88 2478.17 361.383 2477.8 376.869C2474.33 377.15 2471.23 377.614 2468.12 377.62C2436.64 377.674 2405.15 377.653 2373.66 377.653C2370.45 377.653 2367.23 377.653 2363.05 377.653C2362.8 382.087 2362.42 385.752 2362.42 389.417C2362.39 504.778 2362.38 620.139 2362.45 735.501C2362.45 741.164 2362.88 746.88 2363.73 752.48C2367.52 777.704 2390.15 798.447 2416.85 798.523C2436.08 798.579 2451.47 791.008 2465.02 778.33C2468.16 775.391 2471.17 772.303 2474.8 768.725C2483.63 774.613 2492.09 780.249 2501.23 786.349C2478.07 824.37 2446.91 850.17 2403.06 860.388Z" fill="#253771"/>
<path d="M1961.35 1163.14C1938.84 1179.55 1913.73 1186.74 1886.93 1187.51C1859.8 1188.28 1832.63 1187.69 1805.49 1187.66C1803.65 1187.66 1801.81 1187.27 1800.12 1187.08C1798.39 1180.29 1798.21 1006.69 1800.01 998.257C1802.64 998.031 1805.53 997.576 1808.41 997.569C1831.22 997.509 1854.03 997.07 1876.82 997.675C1896.89 998.208 1916.99 999.823 1936.02 1007.01C1967.76 1018.99 1989.2 1040.86 1995.21 1074.76C2001.48 1110.19 1990.1 1139.96 1961.35 1163.14ZM1834.64 1149.38C1834.64 1156.9 1834.64 1164.41 1834.64 1171.27C1836.25 1172.16 1836.7 1172.64 1837.17 1172.64C1855.05 1172.89 1873.01 1174.56 1890.73 1171.2C1909.93 1167.56 1926.62 1159.24 1938.86 1143.3C1950.78 1127.77 1955.25 1110.18 1955.27 1090.81C1955.3 1055.35 1931.88 1022.82 1892.92 1015C1874.39 1011.28 1855.65 1013.02 1836.97 1013.54C1836.53 1013.55 1836.11 1014.11 1834.64 1015.16C1834.64 1058.86 1834.64 1103.31 1834.64 1149.38Z" fill="#24366F"/>
<path d="M2610.64 1149.37C2582.86 1182.15 2547.11 1194.39 2505.89 1191.92C2479.16 1190.32 2455.02 1180.71 2435.05 1162.64C2415.22 1144.7 2403.27 1122.67 2402.61 1095.07C2401.75 1058.77 2418.25 1032.15 2447.74 1012.97C2492.15 984.094 2557.2 987.1 2598.16 1022.58C2621.36 1042.68 2632.57 1068.19 2630.65 1098.92C2629.49 1117.54 2622.13 1134.05 2610.64 1149.37ZM2580.97 1046.59C2573.81 1030.1 2563.03 1016.95 2546.24 1009.54C2532.17 1003.34 2517.55 1002.48 2502.46 1004.92C2481.04 1008.38 2465.03 1019.8 2455.59 1038.83C2439.4 1071.45 2439.33 1105.34 2452.48 1138.88C2470.58 1185.02 2517.87 1188.76 2546.94 1175.27C2565.79 1166.52 2577.29 1150.94 2583.23 1131.51C2591.79 1103.51 2591.56 1075.46 2580.97 1046.59Z" fill="#24366F"/>
<path d="M1441.41 1011.81C1398.21 1011.49 1355.59 1011.43 1312.97 1011.32C1309.52 1011.31 1306.07 1011.02 1302.11 1010.83C1302.11 1006.46 1302.11 1002.78 1302.11 999.192C1308.45 997.058 1488.61 996.793 1497.37 999.146C1448.68 1057.45 1399.63 1114.78 1349.92 1174.18C1375.63 1175.11 1399.58 1174.51 1423.5 1174.62C1447.62 1174.73 1471.75 1174.64 1496.78 1174.64C1497.01 1178.91 1497.21 1182.52 1497.4 1185.96C1491.16 1188.02 1313.16 1188.62 1302.6 1186.82C1300.42 1182.88 1303 1180.17 1305.23 1177.5C1319.88 1160.06 1334.57 1142.67 1349.24 1125.26C1374.06 1095.82 1398.87 1066.39 1423.69 1036.95C1428.93 1030.73 1434.27 1024.59 1439.33 1018.22C1440.67 1016.53 1441.13 1014.13 1441.41 1011.81Z" fill="#24366F"/>
<path d="M2312.85 1102.9C2296.15 1102.64 2280.21 1102.33 2263.2 1102C2263.03 1104.84 2262.69 1107.96 2262.69 1111.08C2262.64 1133.32 2262.68 1155.55 2262.65 1177.78C2262.64 1180.7 2262.39 1183.61 2262.23 1187.08C2250.63 1187.08 2239.66 1187.08 2228.71 1187.08C2226.73 1180.94 2226.45 1006.77 2228.57 998.172C2231.21 997.969 2234.1 997.562 2236.99 997.553C2256.52 997.496 2276.05 997.191 2295.56 997.62C2314.2 998.029 2332.19 1001.66 2348.2 1011.98C2364.15 1022.27 2371.8 1036.9 2370.52 1055.96C2369.36 1073.27 2359.8 1085 2345.32 1093.32C2335.51 1098.95 2324.68 1101.34 2312.85 1102.9ZM2291.07 1093.18C2295.35 1092.55 2299.73 1092.32 2303.88 1091.21C2316.04 1087.93 2325.45 1081.09 2329.96 1068.91C2338.83 1044.97 2326.03 1020.89 2301.18 1014.7C2289.18 1011.71 2276.99 1012.82 2264.84 1013.58C2264.41 1013.61 2264.01 1014.19 2263.58 1014.51C2263.37 1015 2262.99 1015.48 2262.99 1015.97C2262.87 1038.73 2262.81 1061.48 2262.69 1084.24C2262.67 1087.91 2264.54 1089.73 2267.94 1090.21C2275.16 1091.24 2282.38 1092.2 2291.07 1093.18Z" fill="#24366F"/>
<path d="M1277.56 1040.42C1277.78 1041.67 1278.05 1042.89 1277.68 1043.13C1273.25 1046.05 1268.72 1048.82 1263.7 1051.95C1260.23 1046.93 1257.39 1042.72 1254.43 1038.58C1234.26 1010.32 1205.96 1002.77 1173.26 1011.21C1136.19 1020.78 1113.05 1052.72 1112.55 1091.01C1112.28 1111.8 1117.15 1130.74 1129.88 1147.35C1142.77 1164.17 1160.31 1172.8 1180.84 1176.41C1215.35 1182.47 1240 1167.2 1259.57 1140.6C1260.99 1138.67 1262.42 1136.75 1264.21 1134.32C1269.08 1137.19 1273.67 1139.89 1278.48 1142.72C1275.19 1151.36 1268.69 1156.98 1262.79 1162.67C1242.35 1182.37 1217.53 1191.59 1189.2 1192.21C1168.54 1192.65 1148.65 1189.55 1129.88 1180.8C1101.59 1167.63 1081.71 1146.82 1073.86 1116.09C1064.31 1078.74 1079.23 1039.72 1110.57 1017.15C1131.92 1001.78 1155.74 994.356 1182.03 993.7C1200.28 993.245 1217.63 996.011 1234.19 1003.81C1251.76 1012.09 1266.22 1023.97 1277.56 1040.42Z" fill="#24366F"/>
<path d="M2724.01 1099.4C2712.31 1093.55 2700.98 1088.23 2691.42 1080.01C2688.14 1077.19 2684.96 1074.18 2682.15 1070.91C2666.24 1052.39 2671.28 1020.83 2691.53 1006.86C2700.89 1000.4 2711.16 996.2 2722.32 994.861C2741.88 992.513 2761.39 992.402 2779.78 1001.02C2795.54 1008.41 2806.18 1020.34 2811.34 1038.09C2805.35 1040.56 2799.76 1042.87 2793.73 1045.37C2791.61 1041.25 2790.08 1038.11 2788.42 1035.05C2778.47 1016.74 2762.86 1007.71 2742.22 1006.86C2730.84 1006.39 2720.06 1008.04 2710.58 1014.97C2700.37 1022.43 2694.61 1038.29 2707.53 1050.75C2716.3 1059.21 2726.48 1065.11 2737.17 1070.48C2752.19 1078.03 2767.32 1085.4 2782.16 1093.29C2792.01 1098.52 2801.16 1104.89 2808.07 1113.91C2819.75 1129.17 2819.36 1151.67 2807.39 1166.79C2800.64 1175.32 2792.13 1181.5 2782.07 1185.21C2754.75 1195.26 2727.3 1195.75 2700.57 1183.54C2685.17 1176.51 2674.85 1164.21 2668.81 1147.11C2675.13 1144.75 2680.87 1142.6 2687.26 1140.22C2688.58 1142.56 2689.84 1144.56 2690.86 1146.67C2704.37 1174.6 2736.32 1185.83 2764.74 1175.69C2769.44 1174.02 2773.96 1170.95 2777.68 1167.56C2788.16 1157.96 2789.1 1144.06 2779.49 1133.45C2774.11 1127.52 2767.68 1122.11 2760.78 1118.09C2749.1 1111.27 2736.67 1105.74 2724.01 1099.4Z" fill="#24366F"/>
<path d="M2896.72 1125.16C2900.65 1155.46 2920.8 1174.89 2950.14 1178.46C2961.72 1179.87 2972.86 1178.95 2983.82 1175.62C3006.28 1168.8 3024.28 1147.14 3023.88 1121.32C3023.3 1083.88 3023.73 1046.42 3023.73 1008.97C3023.73 1005.75 3023.73 1002.53 3023.73 999.532C3029.35 996.45 3034.26 997.614 3040.06 998.368C3040.06 1001.63 3040.06 1004.29 3040.06 1006.95C3040.05 1044.94 3040.1 1082.93 3040.04 1120.93C3039.99 1152.13 3024.09 1175.38 2994.53 1185.14C2963.46 1195.4 2932.11 1196.22 2901.65 1182.51C2879.37 1172.48 2865.35 1155.55 2862.1 1130.75C2861.4 1125.4 2860.91 1119.98 2860.89 1114.59C2860.79 1079.31 2860.84 1044.03 2860.84 1008.76C2860.84 1005.55 2860.84 1002.35 2860.84 998.223C2872.96 997.078 2884.15 997.373 2896.52 998.056C2896.58 1009.04 2896.67 1019.51 2896.7 1029.98C2896.73 1040.57 2896.71 1051.15 2896.71 1061.73C2896.71 1072.04 2896.71 1082.36 2896.71 1092.67C2896.71 1103.25 2896.71 1113.84 2896.72 1125.16Z" fill="#24366F"/>
<path d="M949.926 1187.69C931.495 1187.69 913.879 1187.69 896.494 1187.69C894.392 1181.46 893.668 1011.73 895.619 998.484C897.901 998.192 900.459 997.584 903.018 997.58C946.172 997.523 989.326 997.533 1032.48 997.567C1034.33 997.569 1036.17 997.952 1038.66 998.228C1038.66 1002.37 1038.66 1006.22 1038.66 1011.23C1020.51 1011.27 1002.68 1011.32 984.863 1011.34C967.042 1011.36 949.222 1011.36 930.816 1011.36C930.816 1033.59 930.816 1054.62 930.816 1076.6C933.777 1076.85 936.623 1077.31 939.471 1077.32C957.384 1077.38 975.297 1077.31 993.21 1077.39C996.361 1077.4 999.51 1077.87 1002.97 1078.15C1002.97 1082.63 1002.97 1086.29 1002.97 1091.05C978.767 1091.12 955.056 1091.2 930.796 1091.27C930.796 1119.41 930.796 1146.39 930.796 1174.57C966.806 1174.76 1002.46 1174.53 1038.71 1174.7C1038.71 1179.22 1038.71 1182.83 1038.71 1187.67C1009.16 1187.71 979.948 1187.68 949.926 1187.69Z" fill="#24366F"/>
<path d="M2109.72 1187.7C2087.26 1187.7 2065.62 1187.7 2044.26 1187.7C2042.45 1180.67 2042.02 1008.48 2043.54 999.087C2049.54 997.111 2177.38 996.795 2185.92 998.871C2185.92 1002.4 2185.92 1006.06 2185.92 1010.7C2182.65 1010.92 2179.53 1011.32 2176.4 1011.32C2147.36 1011.37 2118.32 1011.34 2089.28 1011.37C2086.11 1011.38 2082.93 1011.69 2079.21 1011.89C2079.21 1033.61 2079.21 1054.63 2079.21 1076.61C2082.17 1076.87 2085.01 1077.32 2087.86 1077.33C2105.5 1077.4 2123.14 1077.34 2140.78 1077.38C2143.71 1077.39 2146.63 1077.68 2150.06 1077.87C2150.06 1082.19 2150.06 1085.85 2150.06 1090.49C2147.12 1090.72 2144.27 1091.13 2141.42 1091.14C2123.78 1091.2 2106.14 1091.15 2088.5 1091.19C2085.59 1091.2 2082.69 1091.5 2078.66 1091.74C2078.54 1119.36 2078.61 1146.34 2078.61 1174.51C2114.62 1174.86 2149.76 1174.45 2185.81 1174.76C2186.05 1178.89 2186.25 1182.5 2186.42 1185.4C2185.58 1186.32 2185.41 1186.53 2185.21 1186.71C2185.01 1186.89 2184.79 1187.19 2184.58 1187.19C2159.9 1187.37 2135.21 1187.54 2109.72 1187.7Z" fill="#24366F"/>
<path d="M1695.77 1166.6C1699.13 1173.42 1702.22 1179.69 1705.99 1187.31C1701.41 1187.47 1698.06 1187.65 1694.71 1187.68C1688.75 1187.74 1682.77 1187.43 1676.82 1187.78C1671.83 1188.06 1668.95 1186.24 1666.76 1181.66C1659.37 1166.26 1651.62 1151.03 1643.92 1135.79C1637.98 1124.01 1640.3 1125.43 1626.81 1125.38C1604.03 1125.31 1581.25 1125.54 1558.47 1125.25C1552.61 1125.17 1549.16 1126.84 1546.48 1132.34C1538.64 1148.41 1529.9 1164.05 1522.12 1180.15C1519.35 1185.87 1516.11 1188.71 1509.7 1187.76C1507.08 1187.37 1504.35 1187.7 1500.25 1187.7C1501.83 1184.04 1502.82 1181.36 1504.11 1178.85C1528.23 1131.82 1552.38 1084.8 1576.55 1037.79C1583.25 1024.78 1590.16 1011.87 1596.74 998.806C1598.57 995.182 1600.86 993.629 1604.97 993.753C1608.75 993.867 1610 996.225 1611.39 998.949C1617.81 1011.5 1624.4 1023.96 1630.72 1036.56C1652.36 1079.7 1673.91 1122.89 1695.77 1166.6ZM1607.18 1112.32C1614.87 1111.96 1622.67 1113.12 1630.43 1111.56C1628.28 1103.03 1599 1045.01 1594.28 1039.92C1581.49 1063.41 1569.46 1087.04 1556.99 1112.32C1574.29 1112.32 1589.92 1112.32 1607.18 1112.32Z" fill="#24366F"/>
<path d="M28.9112 307.326C41.805 170.893 144.081 58.3173 277.483 33.0932C441.471 2.08552 599.721 105.84 636.704 268.729C641.277 288.872 643.88 309.323 643.887 330.031C643.925 441.03 643.941 552.03 643.952 663.029C643.953 664.641 643.795 666.253 643.716 667.791C637.953 669.473 39.7379 670.014 28.097 668.331C27.9608 666.09 27.6929 663.733 27.6925 661.375C27.674 551.733 27.655 442.09 27.7297 332.447C27.7353 324.32 28.4341 316.194 28.9112 307.326ZM321.105 201.346C341.034 175.963 366.036 156.31 392.669 138.378C389.737 138.471 387.111 138.99 384.522 139.653C358.411 146.341 333.471 156.163 309.539 168.453C238.346 205.018 183.28 257.917 147.903 330.182C113.384 400.697 103.437 475.854 107.25 553.431C107.295 554.355 107.673 555.263 108.158 557.258C109.834 554.502 110.936 552.721 112.008 550.922C146.097 493.743 196.454 463.837 262.913 461.107C288.33 460.063 313.229 463.771 337.75 470.231C346.071 472.423 354.306 474.947 363.914 477.702C361.025 474.421 359.057 472.21 357.115 469.978C328.688 437.315 305.769 401.421 292.876 359.727C284.254 331.844 281.278 303.535 286.818 274.59C291.975 247.647 303.641 223.787 321.105 201.346ZM404.15 167.184C402.354 162.092 400.558 157.001 398.762 151.909C397.166 155.145 396.686 158.071 396.548 161.012C394.782 198.679 393.305 236.362 391.252 274.014C389.894 298.926 388.233 323.844 385.798 348.67C382.701 380.239 378.987 411.757 374.988 443.226C369.923 483.088 362.754 522.571 351.712 561.273C351.164 563.193 350.97 565.214 350.429 568.19C356.607 565.162 361.629 562.538 366.781 560.2C408.82 541.127 453.393 532.234 499.019 528.138C518.724 526.369 538.562 526.099 558.337 525.085C560.049 524.997 561.737 524.439 564.037 523.98C562.667 520.785 561.679 518.308 560.557 515.894C525.926 441.32 490.784 366.978 456.836 292.094C438.36 251.337 421.908 209.662 404.15 167.184Z" fill="#FEFEFE"/>
<path d="M551.614 922.147C551.614 864.397 551.614 807.462 551.614 749.816C565.226 750.277 577.892 750.705 591.145 751.153C591.346 753.338 591.702 755.411 591.702 757.483C591.728 849.775 592.149 942.07 591.559 1034.36C591.211 1088.69 566.608 1131.04 523.449 1163.11C511.435 1172.04 498.404 1179.27 484.647 1185.19C483.045 1185.87 481.397 1186.45 479.77 1187.08C479.502 1186.57 479.235 1186.06 478.967 1185.54C480.586 1184.6 482.133 1183.48 483.836 1182.72C505.288 1173.15 522.679 1159.11 533.539 1137.82C540.889 1123.4 544.886 1107.97 547.526 1092.12C550.791 1072.51 551.511 1052.72 551.578 1032.9C551.703 996.253 551.614 959.607 551.614 922.147Z" fill="#FAFAFC"/>
<path d="M320.735 201.788C303.632 223.777 291.966 247.637 286.809 274.58C281.269 303.525 284.245 331.834 292.867 359.716C305.76 401.41 328.679 437.304 357.106 469.968C359.048 472.2 361.015 474.41 363.905 477.691C354.297 474.937 346.062 472.413 337.741 470.22C313.22 463.761 288.321 460.053 262.903 461.097C196.445 463.827 146.088 493.733 111.999 550.912C110.927 552.711 109.825 554.491 108.148 557.248C107.663 555.253 107.286 554.345 107.24 553.421C103.427 475.843 113.375 400.686 147.894 330.172C183.271 257.906 238.336 205.007 309.53 168.443C333.462 156.152 358.401 146.33 384.513 139.643C387.102 138.98 389.727 138.46 392.66 138.367C366.027 156.299 341.024 175.953 320.735 201.788Z" fill="#273872"/>
<path d="M404.33 167.778C421.891 209.648 438.343 251.323 456.82 292.08C490.767 366.964 525.909 441.306 560.541 515.879C561.662 518.294 562.65 520.771 564.021 523.965C561.72 524.425 560.032 524.983 558.32 525.07C538.546 526.084 518.707 526.354 499.003 528.123C453.376 532.22 408.804 541.112 366.764 560.186C361.612 562.523 356.591 565.147 350.412 568.176C350.953 565.2 351.147 563.179 351.695 561.259C362.737 522.556 369.906 483.073 374.971 443.212C378.97 411.742 382.685 380.225 385.781 348.656C388.217 323.83 389.878 298.912 391.236 274C393.288 236.348 394.766 198.665 396.531 160.997C396.669 158.056 397.149 155.131 398.745 151.895C400.541 156.986 402.338 162.078 404.33 167.778Z" fill="#6CCFF5"/>
</svg>
